<svg width="659" height="296" viewBox="0 0 659 296" fill="none" xmlns="http://www.w3.org/2000/svg">
<g opacity="0.6">
<path d="M54.8775 201.612L66.9348 107.273L78.8932 198.228L54.8775 201.612ZM86.1655 74.3984L50.0019 79.4909L22.0001 267.121L46.7488 263.638L51.4267 227.033L82.2452 222.692L86.7914 258.001L113.484 254.245L86.1655 74.3984Z" fill="#3A3841"/>
<path d="M159.053 142.854L159.151 90.3609L171.283 88.6524C180.746 87.3236 184.864 92.5151 184.839 105.638L184.814 119.81C184.789 134.51 178.711 140.089 168.763 141.492L159.053 142.854ZM172.057 62.2986L132.508 67.8698L132.171 251.604L158.863 247.849L159.011 169.109L168.227 167.813C180.367 166.105 184.962 170.966 184.93 188.026L184.864 221.619C184.839 236.574 185.811 239.331 187.252 243.846L214.43 240.016C211.77 233.57 211.539 227.041 211.556 218.119L211.614 185.831C211.655 165.098 207.306 152.065 193.972 149.482V148.954C205.873 142.029 211.482 129.17 211.515 110.269L211.539 98.986C211.589 70.6348 199.721 58.4028 172.057 62.2986Z" fill="#3A3841"/>
<path d="M262.906 128.22L263.005 75.7271L275.145 74.0186C284.608 72.6898 288.717 77.8813 288.693 91.0046L288.668 105.176C288.643 119.876 282.565 125.455 272.625 126.858L262.906 128.22ZM275.919 47.673L236.362 53.2442L236.025 236.978L262.717 233.223L262.865 154.483L272.089 153.187C284.221 151.479 288.824 156.34 288.791 173.401L288.726 206.993C288.701 221.949 289.664 224.705 291.114 229.22L318.292 225.39C315.632 218.944 315.401 212.416 315.418 203.493L315.476 171.205C315.517 150.472 311.168 137.44 297.834 134.856V134.328C309.735 127.403 315.336 114.552 315.368 95.6431L315.393 84.3604C315.443 56.0091 303.583 43.7772 275.919 47.673Z" fill="#3A3841"/>
<path d="M366.917 34.8553L340.224 38.619L339.887 222.345L366.579 218.59L366.917 34.8553Z" fill="#3A3841"/>
<path d="M472.714 19.9573L448.204 23.4073L430.217 170.264L412.774 28.4007L385.843 32.1891L411.217 212.3L446.656 207.307L472.714 19.9573Z" fill="#3A3841"/>
<path d="M510.088 137.497L522.154 43.1583L534.112 134.113L510.088 137.497ZM541.376 10.2841L505.221 15.3765L477.219 203.007L501.968 199.524L506.646 162.919L537.464 158.577L542.011 193.886L568.703 190.131L541.376 10.2841Z" fill="#3A3841"/>
<path d="M614.42 0L587.727 3.75545L587.381 187.49L658.004 177.544L658.053 151.297L614.123 157.479L614.42 0Z" fill="#3A3841"/>
</g>
<path d="M32.8774 229.612L44.9347 135.273L56.8931 226.228L32.8774 229.612ZM64.1654 102.399L28.0018 107.491L0 295.121L24.7487 291.638L29.4266 255.033L60.2451 250.692L64.7913 286.001L91.4836 282.245L64.1654 102.399Z" fill="white"/>
<path d="M137.052 170.854L137.151 118.361L149.283 116.653C158.746 115.324 162.864 120.515 162.839 133.639L162.814 147.81C162.789 162.51 156.711 168.089 146.762 169.492L137.052 170.854ZM150.057 90.2987L110.508 95.8699L110.171 279.604L136.863 275.849L137.011 197.109L146.227 195.813C158.367 194.105 162.962 198.966 162.929 216.026L162.863 249.619C162.839 264.574 163.811 267.331 165.252 271.846L192.43 268.016C189.77 261.57 189.539 255.041 189.556 246.119L189.613 213.831C189.655 193.098 185.306 180.065 171.972 177.482V176.954C183.873 170.029 189.482 157.17 189.515 138.269L189.539 126.986C189.589 98.6349 177.721 86.403 150.057 90.2987Z" fill="white"/>
<path d="M240.906 156.22L241.005 103.727L253.145 102.019C262.608 100.69 266.717 105.881 266.693 119.005L266.668 133.176C266.643 147.876 260.565 153.455 250.624 154.858L240.906 156.22ZM253.919 75.673L214.362 81.2442L214.024 264.978L240.717 261.223L240.865 182.483L250.089 181.187C262.22 179.479 266.824 184.34 266.791 201.401L266.725 234.993C266.701 249.949 267.664 252.705 269.114 257.22L296.292 253.39C293.632 246.944 293.401 240.416 293.418 231.493L293.475 199.205C293.517 178.472 289.168 165.44 275.834 162.856V162.328C287.735 155.403 293.335 142.552 293.368 123.643L293.393 112.36C293.443 84.0091 281.583 71.7772 253.919 75.673Z" fill="white"/>
<path d="M344.916 62.8555L318.224 66.6191L317.886 250.345L344.579 246.59L344.916 62.8555Z" fill="white"/>
<path d="M450.714 47.9574L426.204 51.4074L408.217 198.264L390.774 56.4009L363.843 60.1893L389.217 240.3L424.656 235.307L450.714 47.9574Z" fill="white"/>
<path d="M488.088 165.498L500.154 71.1584L512.112 162.114L488.088 165.498ZM519.376 38.2842L483.221 43.3767L455.219 231.007L479.968 227.524L484.646 190.919L515.464 186.577L520.01 221.886L546.703 218.131L519.376 38.2842Z" fill="white"/>
<path d="M592.419 28.0001L565.727 31.7556L565.381 215.49L636.003 205.544L636.053 179.298L592.123 185.48L592.419 28.0001Z" fill="white"/>
</svg>
