<svg width="12" height="12" viewBox="0 0 12 12" fill="none" xmlns="http://www.w3.org/2000/svg">
<rect width="11" height="11" rx="5.5" fill="#17161A"/>
<path d="M5.65684 1.67078C5.13174 1.6682 4.6113 1.76938 4.12541 1.96855C3.63954 2.16771 3.19779 2.46091 2.82557 2.8313C2.45333 3.20172 2.15796 3.642 1.95641 4.1269C1.75487 4.61178 1.6511 5.13174 1.6511 5.65685C1.6511 6.18196 1.75486 6.7019 1.95642 7.18681C2.15796 7.6717 2.45333 8.112 2.82557 8.48242C3.19778 8.85279 3.63953 9.146 4.12541 9.34517C4.6113 9.54432 5.13174 9.64552 5.65685 9.64293C6.18195 9.64551 6.70241 9.54432 7.18831 9.34516C7.67418 9.146 8.11591 8.85279 8.48815 8.4824C8.86039 8.11199 9.15575 7.6717 9.3573 7.18682C9.55884 6.70191 9.66261 6.18198 9.66261 5.65685C9.66261 5.13171 9.55884 4.61181 9.3573 4.1269C9.15575 3.64202 8.86038 3.20172 8.48813 2.8313C8.11592 2.46091 7.67418 2.16772 7.18829 1.96855C6.7024 1.76939 6.18197 1.6682 5.65684 1.67078ZM7.87146 3.44223C8.35497 3.92478 8.66649 4.55286 8.75809 5.22979H2.55562C2.6472 4.55286 2.95875 3.92477 3.44221 3.44224C4.66342 2.22104 6.65091 2.22168 7.87146 3.44223ZM3.44221 7.87148C2.95872 7.38893 2.64722 6.76086 2.55561 6.08394L8.75807 6.08394C8.6665 6.76085 8.35497 7.38894 7.87146 7.87149C6.65091 9.09204 4.66342 9.09268 3.44221 7.87148Z" fill="#A2A2A2"/>
</svg>
